HIERARCHY
ROOT Pelvis
{
	OFFSET 0.000000 0.000000 0.000000
	CHANNELS 6 Xposition Yposition Zposition Zrotation Yrotation Xrotation 
	JOINT Left_hip
	{
		OFFSET 0.068973 -0.091024 -0.007589
		CHANNELS 3 Zrotation Yrotation Xrotation
		JOINT Left_knee
		{
			OFFSET 0.036482 -0.391037 -0.003979
			CHANNELS 3 Zrotation Yrotation Xrotation
			JOINT Left_ankle
			{
				OFFSET -0.012239 -0.415469 -0.043440
				CHANNELS 3 Zrotation Yrotation Xrotation
				JOINT Left_foot
				{
					OFFSET 0.023806 -0.058558 0.118702
					CHANNELS 3 Zrotation Yrotation Xrotation
					End Site
					{
						OFFSET 0.000000 0.000000 0.000000
					}
				}
			}
		}
	}
	JOINT Right_hip
	{
		OFFSET -0.066552 -0.090468 -0.003847
		CHANNELS 3 Zrotation Yrotation Xrotation
		JOINT Right_knee
		{
			OFFSET -0.042435 -0.398340 -0.006400
			CHANNELS 3 Zrotation Yrotation Xrotation
			JOINT Right_ankle
			{
				OFFSET 0.014931 -0.415421 -0.041327
				CHANNELS 3 Zrotation Yrotation Xrotation
				JOINT Right_foot
				{
					OFFSET -0.021472 -0.049410 0.121889
					CHANNELS 3 Zrotation Yrotation Xrotation
					End Site
					{
						OFFSET 0.000000 0.000000 0.000000
					}
				}
			}
		}
	}
	JOINT Spine1
	{
		OFFSET -0.002904 0.105700 -0.022855
		CHANNELS 3 Zrotation Yrotation Xrotation
		JOINT Spine2
		{
			OFFSET 0.004179 0.132554 -0.002501
			CHANNELS 3 Zrotation Yrotation Xrotation
			JOINT Spine3
			{
				OFFSET 0.001987 0.049603 0.025988
				CHANNELS 3 Zrotation Yrotation Xrotation
				JOINT Neck
				{
					OFFSET -0.003935 0.211336 -0.045638
					CHANNELS 3 Zrotation Yrotation Xrotation
					JOINT Head
					{
						OFFSET 0.003906 0.065991 0.051018
						CHANNELS 3 Zrotation Yrotation Xrotation
						End Site
						{
							OFFSET 0.000000 0.000000 0.000000
						}
					}
				}
				JOINT Left_collar
				{
					OFFSET 0.072882 0.117751 -0.036270
					CHANNELS 3 Zrotation Yrotation Xrotation
					JOINT Left_shoulder
					{
						OFFSET 0.082118 0.032630 -0.005771
						CHANNELS 3 Zrotation Yrotation Xrotation
						JOINT Left_elbow
						{
							OFFSET 0.263305 -0.015144 -0.028095
							CHANNELS 3 Zrotation Yrotation Xrotation
							JOINT Left_wrist
							{
								OFFSET 0.250741 0.010115 -0.000759
								CHANNELS 3 Zrotation Yrotation Xrotation
								JOINT Left_palm
								{
									OFFSET 0.080683 -0.009989 -0.013613
									CHANNELS 3 Zrotation Yrotation Xrotation
									End Site
									{
										OFFSET 0.000000 0.000000 0.000000
									}
								}
							}
						}
					}
				}
				JOINT Right_collar
				{
					OFFSET -0.074811 0.116132 -0.040385
					CHANNELS 3 Zrotation Yrotation Xrotation
					JOINT Right_shoulder
					{
						OFFSET -0.085089 0.032943 -0.007484
						CHANNELS 3 Zrotation Yrotation Xrotation
						JOINT Right_elbow
						{
							OFFSET -0.254763 -0.014219 -0.020321
							CHANNELS 3 Zrotation Yrotation Xrotation
							JOINT Right_wrist
							{
								OFFSET -0.256597 0.009233 -0.005063
								CHANNELS 3 Zrotation Yrotation Xrotation
								JOINT Right_palm
								{
									OFFSET -0.080528 -0.007219 -0.010379
									CHANNELS 3 Zrotation Yrotation Xrotation
									End Site
									{
										OFFSET 0.000000 0.000000 0.000000
									}
								}
							}
						}
					}
				}
			}
		}
	}
}
MOTION
Frames: 10
Frame Time: 0.100000
-1.657010 -0.299413 1.406462 4.995628 3.614359 -163.962147 -0.437413 1.080931 -8.918520 -10.889149 -2.143328 39.078693 0.091053 6.110700 -0.279977 2.003166 16.980486 -10.303783 3.196899 3.138331 -28.411191 1.649462 -6.513443 10.188465 7.497346 -12.800074 10.883150 -25.999382 -10.290620 -2.903070 -8.916322 -5.017948 32.490625 2.829144 -15.274278 14.310738 2.903080 -6.733736 1.471004 -4.975592 -31.751368 25.811059 35.739503 -14.056254 -20.018795 -18.353497 -26.587227 16.690234 -26.410670 -6.704334 -2.005450 17.878315 -36.160390 5.430278 7.828202 -16.889424 4.277649 -8.043184 0.097955 -5.704959 6.506806 19.786409 -8.157964 46.550079 4.672459 -11.379825 -161.382620 37.095666 -139.655069 -25.735614 26.011984 -15.139755 15.536401 -9.143421 4.716848 
-1.664986 -0.300883 1.337759 5.189793 3.196762 -162.181233 4.238962 1.038340 -20.663761 -11.475776 2.845368 54.383776 -2.497708 4.274860 6.426136 2.004150 17.567068 -13.758760 3.603512 2.937678 -26.817415 1.906585 -6.426289 13.123142 6.408410 -11.320619 6.933808 -27.019704 -11.587523 -1.837379 -8.098581 -3.351675 32.611526 1.132116 -14.606708 11.767525 2.493796 -5.886257 2.169282 -4.713223 -26.608648 24.791647 33.484804 -8.899895 -17.439288 -22.546878 -25.687091 17.774497 -32.896448 -2.115692 -0.597407 14.803304 -25.433748 5.165390 4.875988 -14.224687 0.495519 -8.484329 0.211232 -3.468196 7.416016 19.724425 -7.067176 47.467669 4.762153 -12.404689 -162.489490 37.233525 -142.359714 -23.576255 25.589518 -13.890605 17.517368 -9.084169 3.864940 
-1.668512 -0.301145 1.271344 4.459996 1.157933 -162.293667 7.831753 1.339305 -28.624371 -8.410194 4.520604 53.230792 0.451171 7.752893 3.332422 1.897297 16.937399 -10.497734 3.752112 2.020239 -21.689723 1.318622 -5.768548 13.427377 6.514489 -11.281505 2.132567 -25.970198 -11.540039 0.926956 -7.598340 -1.047509 31.946813 0.066631 -14.141117 11.042887 2.335817 -5.036164 2.690517 -2.611147 -20.211704 22.156752 31.074403 -3.299959 -16.167035 -24.870296 -23.079771 17.625562 -38.256083 2.465168 -0.249974 14.541857 -22.589888 5.752166 2.950375 -12.651854 0.316079 -9.459862 0.033919 -2.960903 8.190282 17.746278 -5.613960 47.202365 4.259164 -14.235304 -162.880525 36.938810 -142.720295 -22.264558 24.846682 -12.576592 19.370066 -8.654625 3.407657 
-1.664877 -0.293487 1.205541 2.523384 -0.465901 -162.354420 8.050883 1.203821 -31.412232 -4.439856 5.304808 33.725841 1.247949 4.284466 4.150415 -3.544241 18.283959 -6.608950 1.697290 -0.612251 -17.793688 0.185017 -6.032971 16.329238 12.807235 -7.116741 -4.740169 -24.373405 -9.953918 2.964479 -8.887990 1.236561 27.981427 -0.383355 -13.873269 15.395273 1.725214 -4.136643 0.230677 -1.518070 -18.566063 20.624134 33.083336 -6.905676 -13.460827 -20.697787 -20.245583 14.980746 -45.278618 5.350143 3.986143 15.276295 -23.719770 5.283914 1.629067 -15.148124 -2.595777 -7.853016 -0.721362 -6.087709 8.886290 15.237782 -1.010698 47.735905 8.578431 -11.736690 -160.369939 36.556879 -135.657385 -27.249422 24.089021 -3.127255 17.411914 -7.702591 0.858432 
-1.648683 -0.276685 1.136213 5.201052 -1.849067 -162.620783 8.713435 4.466610 -29.480924 -1.246817 5.501477 6.924766 0.378217 2.250510 8.161441 -4.557768 21.381717 -4.208785 3.581535 -0.378293 -12.336115 -0.309427 -8.037515 16.191665 10.604027 -6.724143 -7.550014 -19.570156 -10.905722 9.006170 -7.377888 0.036701 26.787693 -0.164432 -12.710860 12.971130 1.360565 -3.833440 1.159370 0.454505 -23.271131 24.703181 30.911698 -14.690862 -12.857206 -19.456905 -17.601284 11.434895 -50.096627 9.436440 8.987444 17.706975 -24.258061 4.189011 0.690702 -13.860636 -5.049935 -10.133779 -2.057030 -6.259333 8.586425 15.886661 -3.422847 48.623815 8.318932 -5.718666 -158.451420 36.176169 -129.739416 -28.390562 21.437687 -5.383364 17.985503 -7.509541 -1.851630 
-1.615310 -0.248375 1.066012 8.747571 0.990772 -163.167913 10.041548 5.947569 -26.672736 0.081274 6.932516 1.198497 1.299129 2.258311 7.796061 -5.287451 22.911141 -3.255475 4.102816 0.023645 -7.171571 -0.277966 -6.952226 17.742517 8.801981 -5.481102 -10.647898 -16.224762 -11.430660 11.593718 -7.351601 -0.365015 24.643121 0.288953 -12.440757 14.687103 0.753184 -3.903609 0.792150 -1.186178 -33.083840 31.116699 32.065158 -25.925119 -12.554838 -19.530675 -15.169349 10.695937 -51.878356 9.983025 10.811967 18.770985 -24.980468 3.113039 0.056655 -12.729965 -4.408467 -11.135562 -2.891409 -7.437407 9.998618 16.789866 -4.327965 47.642167 9.199164 -3.115044 -157.433837 36.314953 -127.779171 -28.681518 20.610928 -6.316018 17.751494 -7.860301 -2.634308 
-1.568707 -0.230451 1.000660 11.175765 4.123301 -161.837667 11.015730 7.416182 -27.469263 -0.367213 9.982952 8.568937 1.178993 2.881964 12.164636 -4.950832 22.598537 -4.880574 1.687568 1.063608 -8.630728 -0.506938 -4.586166 25.794307 10.189558 -3.902947 -9.085555 -18.073213 -11.119980 9.708533 -8.035958 -1.310761 24.637849 1.967979 -13.962603 15.129410 1.567360 -4.862303 -0.253854 -1.776397 -35.872529 31.300469 32.150551 -28.180304 -11.037219 -19.321789 -16.218374 12.562634 -52.190405 7.567926 9.648003 17.545225 -26.034938 4.145808 0.300021 -11.103286 -3.070995 -11.462697 -3.836091 -8.261016 11.543601 16.783132 -3.618743 48.459026 10.533339 -2.701985 -157.870795 36.782386 -128.762777 -28.210543 20.196713 -2.594895 18.166090 -7.196476 -3.442259 
-1.517998 -0.230047 0.945420 12.099213 6.710359 -161.104698 8.884337 7.368919 -25.405854 -0.905149 10.817823 11.522044 4.349999 4.973919 8.617912 -6.411428 21.588774 -7.307071 -1.046733 2.063901 -16.201964 -1.200093 -1.844321 39.464147 13.352018 -5.393021 -5.607703 -23.539680 -8.979977 5.729897 -8.163721 -2.571525 28.231097 3.840473 -14.814248 12.649707 2.550141 -5.435960 0.758901 -2.820236 -34.794264 28.685325 32.883593 -28.316499 -12.434748 -15.237230 -21.021610 12.579277 -45.450157 4.497967 7.613859 15.409198 -29.541828 6.918820 -4.142141 -11.640371 0.078879 -11.516864 -4.278128 -9.308359 10.851149 19.431052 -4.280691 50.184959 9.230515 -1.905083 -157.169597 36.061286 -127.959992 -26.233420 19.675209 -0.826015 18.640199 -7.536211 -4.418995 
-1.480802 -0.227550 0.894150 13.241947 8.721548 -160.150951 6.698004 7.440521 -22.298519 -0.700515 10.720821 11.190666 5.637324 7.223621 6.052527 -6.009372 20.981857 -6.632464 -0.954463 2.706019 -21.938276 -1.730897 -1.527812 41.948654 12.268491 -6.856936 -7.109889 -21.733041 -8.628954 4.272178 -7.828626 -3.660261 29.761869 5.213342 -14.989072 12.399513 3.299862 -6.016104 0.363504 -0.294954 -33.551701 27.184648 34.259578 -29.274667 -14.386633 -12.133888 -21.821498 10.338234 -33.868618 1.683200 3.532690 18.301544 -29.055922 2.186438 0.858252 -12.404516 5.921280 -11.268246 -4.639403 -10.489244 10.955857 20.369768 -4.911552 47.821830 7.914905 -1.399521 -156.952355 36.443939 -128.021912 -29.136807 20.063501 -4.731204 17.328621 -8.063765 -3.415402 
-1.453528 -0.218103 0.848018 13.639083 11.440063 -159.626175 4.388245 6.762028 -19.698336 -0.050831 12.474540 12.100805 7.080366 9.321179 3.428098 -6.620867 20.127511 -5.239689 0.338861 4.285462 -26.105562 -0.440104 0.144837 33.471973 12.988135 -6.268802 -4.338396 -20.568110 -7.773150 2.594087 -8.418681 -4.062434 30.298909 6.143353 -15.487907 11.955363 3.719228 -6.726124 0.395280 0.542277 -32.072838 26.330312 36.165858 -30.270077 -15.493929 -8.486627 -21.451983 8.125354 -24.506511 -0.035344 -2.332956 22.112894 -24.659542 -6.577572 3.640191 -13.972233 6.786279 -8.560389 -2.932652 -9.537392 10.834506 19.853617 -5.329958 46.580889 8.479439 -1.664927 -157.055627 36.920502 -128.558638 -30.745161 20.462431 -7.603605 14.143447 -9.707079 -1.159737 
